<svg xmlns="http://www.w3.org/2000/svg" width="32" height="32" viewBox="0 0 64 64" fill="none">
  <defs>
    <linearGradient id="heartGradient" x1="0%" y1="0%" x2="100%" y2="100%">
      <stop offset="0%" stop-color="#3B82F6"/>
      <stop offset="100%" stop-color="#60A5FA"/>
    </linearGradient>
  </defs>

  <!-- Heart Shape -->
  <path 
    d="M32 56.5c-1.5 0-3-.5-4.3-1.4-10.4-7.4-16.8-12.5-19.6-15.2-4.2-3.9-6.1-7.5-6.1-11.6 0-4 1.3-7.4 3.9-10.2 2.6-2.8 6-4.2 10.1-4.2 3.1 0 5.9.9 8.4 2.7 2.5 1.8 4.2 4.2 5.1 7.1h5c.9-2.9 2.6-5.3 5.1-7.1 2.5-1.8 5.3-2.7 8.4-2.7 4.1 0 7.5 1.4 10.1 4.2 2.6 2.8 3.9 6.2 3.9 10.2 0 4.1-1.9 7.7-6.1 11.6-2.8 2.7-9.2 7.8-19.6 15.2-1.3.9-2.8 1.4-4.3 1.4z"
    fill="url(#heartGradient)"
  />

  <!-- Arrow -->
  <path
    d="M32 20l8 8M32 20l-8 8M32 20v24"
    stroke="white"
    stroke-width="3"
    stroke-linecap="round"
    stroke-linejoin="round"
  />
</svg>